<svg xmlns="http://www.w3.org/2000/svg" viewBox="0 0 750 750"><defs><style>.a{fill:#443bce;}.b{fill:#fefefe;}.c{fill:#fdfcfe;}.d{fill:#fcfbfd;}.e{fill:#fcfbfe;}.f{fill:#443cce;}.g{fill:#443ccd;}.h{fill:#463fc9;}</style></defs><title>logo</title><rect class="a" width="750" height="750"/><path class="b" d="M284.19,371.76h-43.5V290.23H174.94v81.35H131.41V184.33H174.7v68.24h65.61V184.28h43.88Z"/><path class="b" d="M452.7,371.74l59-95.79L456.1,184.28h49.44l31.21,58.53,31.51-58.56h48.66l-55.37,90.11,59.18,97.21h-50.8L536.7,309.22l-35.15,62.52Z"/><path class="b" d="M310.44,579.68c-1.17-25.39,4.88-48.39,23.08-66.4,12.26-12.12,26.32-22.41,39.47-33.62,6.32-5.39,12.87-10.62,18.52-16.67,7.47-8,9.15-17.88,6.48-28.42-1.51-6-5.29-10.25-11.35-11.36-5.18-.94-10.68-1.58-15.82-.86-11.23,1.57-16.68,8.77-17.76,21.88-.26,3.12-.32,6.25-.49,9.64H313.45c-2.33-30.48,12.45-61.66,48-66.84,17.5-2.55,34.69-1.25,50.65,6.88,20.48,10.43,27.86,28.38,27.45,50.41-.37,20.32-10.17,35.92-25,48.61-8.58,7.34-17.95,13.77-27.09,20.44a101.2,101.2,0,0,0-23.83,25.32,15.93,15.93,0,0,0-1.53,3.13,6.59,6.59,0,0,0,0,1.86h77.72v36Z"/><path class="b" d="M177.29,392.17h34.12V579.7H170.56V453.88H133.23V424c4.79-.32,9.54-.59,14.28-1,17.7-1.45,26-9,29.16-26.45C176.9,395.23,177,393.91,177.29,392.17Z"/><path class="b" d="M618.71,579.83H578V453.9H540.57V424c4.91-.34,9.83-.6,14.73-1,17.73-1.57,26.44-9.87,28.8-27.36.13-1,.33-1.94.55-3.24h34.06Z"/><path class="c" d="M419.86,372.21c.33-3.44.24-5.37.75-7.12a18.54,18.54,0,0,0-1.87-15.32c-4.32-7.27-8.59-14.57-13.24-22.48-1.86,5.22-3.49,9.78-5.52,15.46-4.16-2.76-7.8-5.16-11.42-7.59-8.31-5.6-16.44-11.46-27.52-8.39-6,1.68-12.27,2.64-18.77,4-4.53-4.91.43-10.7-1.54-16.72-7.88,5.91-16,11.16-23,17.63-3.17,2.95-4.08,8.33-6.28,13.21-2.49.48-3.76-1.42-4.71-4.29-8-24.08-2.62-41.59,17.49-56.83,7.42-5.63,14.88-11.19,23.41-17.61C348,224.24,370,194.34,404.81,171c4.1,8.14,8.3,15.13,11.24,22.62,4.46,11.37,8.84,22.89,11.78,34.71,3.62,14.5-.66,28.76-4.8,42.57-2.44,8.12-1.86,14.69,2.73,22,4.92,7.8,8.33,16.58,12.34,24.95a31.85,31.85,0,0,1-.46,29.69c-3.81,7.34-8.44,14.27-12.88,21.26C424,369.87,422.38,370.46,419.86,372.21Z"/><path class="d" d="M380.53,363.72c8.32.59,13-3.42,15.87-10.9-.5,8.27,3,13.2,10.62,16.42-8-.53-13,3-15.88,10.29C390.81,372,387.87,366.64,380.53,363.72Z"/><path class="e" d="M364.26,361.57c-.19-7.74-3-13.24-10.92-16,8.21.52,13.12-3.08,16.08-10.44.28,7.51,3.21,12.88,10.56,15.77C372.23,351,367.13,354.4,364.26,361.57Z"/><path class="d" d="M321.8,351.39c7.93.14,13-3.32,15.92-10.64.33,7.56,3,13.17,10.67,15.8-7.62.49-13.54,2.86-15.82,11.15C332.46,359.63,329.34,354.23,321.8,351.39Z"/><path class="f" d="M398.42,335c-8.92-4.6-16.74-10.78-25.44-12.49s-18.23,1.05-27.69,1.87c.89-9.54,1.51-19.62,2.83-29.6,2.45-18.41,4.85-36.84,8.15-55.11,3.08-17.06,12.28-31.05,24.76-42.87,6.88-6.52,14-12.8,21.59-19.74,1.81,3.51,3.53,6.45,4.88,9.55,4.85,11.08,10.39,21.95,14.14,33.4,5.2,15.89,2.38,32-2.26,47.58C412.63,290.33,405.34,312.87,398.42,335Z"/><path class="f" d="M427.29,357.81c-2.27-4.77-3.92-8.72-6-12.45a185.24,185.24,0,0,0-10.39-17.58c-3.18-4.51-3.18-8.51-1.28-13.44,3.15-8.17,5.66-16.59,8.95-26.43,5.91,12.48,11.33,23.63,16.48,34.91,3.08,6.75,2.44,13.65-.56,20.29C432.28,348,429.75,352.82,427.29,357.81Z"/><path class="f" d="M310.15,333.48c-.43-3.83-.67-7-1.17-10.08-2.34-14.53,4.36-25,15.1-33.56,6.86-5.45,14-10.58,21.8-16.47-1.28,12.06-2.45,23.12-3.61,34.06C331.82,316.4,318.6,321.47,310.15,333.48Z"/><path class="c" d="M389.68,271A25.52,25.52,0,0,1,364,245.49c.07-13.61,11.86-25.34,25.53-25.42C403,220,415,232,415,245.6A25.65,25.65,0,0,1,389.68,271Z"/><path class="g" d="M401.11,243.35v4.7l8.28,3.27c-2.86,9.74-11.68,16.16-18.21,13.7l3.88-10.39-8-.88c-.39-2-.8-4.13-1.38-7.15l2.69-1.48L387.25,236c3.38-3.62,11.4-.39,12.12-8.64l4.55,3-7.76,9.12Z"/><path class="h" d="M371,255.29l4.19-10.76-.77-.3,3.53-7.33-6-2.74c5.34-7.37,12.31-10.34,21.4-9,.25.51.54,1.06.78,1.64s.3.93.47,1.48l-12,4.62c.38,3.37.67,6,1,9l-4.9-.7-3.39,3.91,5.84,6.63-2.57,3.46c2.27,5.64,6.91,2.54,10.46,3.14l-4,7.69A19.26,19.26,0,0,1,371,255.29Z"/></svg>